<svg width="210" height="25" viewBox="0 0 210 25" fill="none" xmlns="http://www.w3.org/2000/svg">
<g id="Group 3">
<path id="Vector" d="M0.0788941 23.2637L17.0186 1.18276C17.3152 0.820242 17.6777 0.65546 18.1062 0.65546H22.2917C22.4235 0.65546 22.5223 0.721373 22.5883 0.820243C22.6212 0.919113 22.6212 1.05094 22.5223 1.14981L5.58265 23.1977C5.319 23.5603 4.95647 23.758 4.49508 23.758H0.30959C0.210721 23.758 0.111851 23.6921 0.0459375 23.5932C-0.0199758 23.4944 -0.0199758 23.3625 0.0788941 23.2637Z" fill="#FF4655"/>
<path id="Vector_2" d="M11.8105 23.2637L28.7502 1.18276C29.0468 0.820242 29.4094 0.65546 29.8378 0.65546H34.0233C34.1551 0.65546 34.254 0.721373 34.3199 0.820243C34.3529 0.919113 34.3529 1.05094 34.254 1.14981L17.3143 23.1977C17.0506 23.5603 16.6881 23.758 16.2267 23.758H12.0412C11.9424 23.758 11.8435 23.6921 11.7776 23.5932C11.7117 23.4944 11.7117 23.3625 11.8105 23.2637Z" fill="#FF4655"/>
<path id="Vector_3" d="M37.2864 0.589535H40.681C40.7798 0.589535 40.8787 0.622492 40.9776 0.688405C41.0764 0.787275 41.1094 0.886145 41.1094 0.985014V16.5405L52.9408 1.11684C53.2374 0.754319 53.6 0.589535 54.0284 0.589535H58.2139C58.3457 0.589535 58.4446 0.655448 58.5105 0.754317C58.5435 0.853187 58.5435 0.952057 58.4775 1.05093L41.5049 23.1318C41.2083 23.4943 40.8458 23.6591 40.4173 23.6591H37.2864C37.1876 23.6591 37.0887 23.6262 37.0228 23.5273C36.9239 23.4614 36.891 23.3625 36.891 23.2636V0.985014C36.891 0.886145 36.9239 0.787275 37.0228 0.688405C37.0887 0.622492 37.1876 0.589535 37.2864 0.589535Z" fill="#FF4655"/>
<path id="Vector_4" d="M47.7333 23.2637L64.673 1.18276C64.9696 0.820242 65.3321 0.65546 65.7605 0.65546H68.8914C69.1551 0.65546 69.2869 0.787285 69.2869 1.05094V23.3296C69.2869 23.5932 69.1551 23.725 68.8914 23.725H65.7605C65.3321 23.725 64.9696 23.5603 64.673 23.1977L58.9715 15.7496L53.237 23.1977C52.9404 23.5603 52.5779 23.725 52.1494 23.725H47.9639C47.8651 23.725 47.7662 23.6591 47.7003 23.5603C47.6344 23.4614 47.6344 23.3625 47.7333 23.2637ZM61.7069 12.1903L65.1014 16.6064V7.77408L61.7069 12.1903Z" fill="#FF4655"/>
<path id="Vector_5" d="M74.429 0.65546H77.8235C78.1202 0.65546 78.252 0.787285 78.252 1.05094V19.5396H87.4798C87.6117 19.5396 87.7105 19.6055 87.7764 19.7044C87.8094 19.8032 87.8094 19.9021 87.7435 20.001L85.2717 23.1977C84.9751 23.5603 84.6456 23.725 84.2171 23.725H74.429C74.3301 23.725 74.2313 23.6921 74.1654 23.5932C74.0665 23.5273 74.0335 23.4284 74.0335 23.3296V1.05094C74.0335 0.952068 74.0665 0.853198 74.1654 0.754329C74.2313 0.688416 74.3301 0.65546 74.429 0.65546Z" fill="#FF4655"/>
<path id="Vector_6" d="M89.4243 12.0914C89.4243 10.4106 89.7539 8.82869 90.3801 7.34564C91.0062 5.89556 91.8301 4.64321 92.9177 3.55564C93.9723 2.50103 95.2247 1.67712 96.6748 1.05094C98.1249 0.457724 99.6738 0.161116 101.355 0.194073C103.035 0.227029 104.584 0.556594 106.034 1.18277C107.485 1.80894 108.737 2.69877 109.824 3.78634C110.879 4.8739 111.703 6.15921 112.329 7.6093C112.955 9.09234 113.252 10.6413 113.219 12.2891C113.186 13.9699 112.856 15.5189 112.23 16.969C111.604 18.419 110.747 19.6714 109.66 20.759C108.539 21.8465 107.287 22.6704 105.837 23.2637C104.387 23.8898 102.838 24.1864 101.157 24.1864C99.509 24.1864 97.9601 23.8569 96.5429 23.2307C95.0929 22.6045 93.8405 21.7806 92.7859 20.6601C91.7313 19.5725 90.9074 18.3202 90.3141 16.8371C89.7209 15.3541 89.4243 13.7722 89.4243 12.0914ZM93.6428 12.2562C93.6428 13.3437 93.8405 14.3654 94.2689 15.3211C94.6974 16.2769 95.2576 17.1337 95.9497 17.8588C96.6418 18.5838 97.4657 19.1441 98.3885 19.5725C99.3113 20.001 100.3 20.1987 101.355 20.1987C102.376 20.1657 103.365 19.935 104.288 19.5066C105.211 19.0782 106.034 18.485 106.727 17.727C107.419 17.0019 107.946 16.145 108.341 15.1563C108.737 14.2006 108.935 13.179 108.902 12.0914C108.902 11.0038 108.704 9.98217 108.275 9.02643C107.847 8.07069 107.287 7.21382 106.595 6.48877C105.903 5.79669 105.079 5.23643 104.156 4.80799C103.2 4.37956 102.211 4.18182 101.19 4.18182C100.168 4.21477 99.1795 4.41251 98.2567 4.84095C97.3339 5.26938 96.5429 5.8626 95.8509 6.58764C95.1588 7.34565 94.6315 8.20252 94.236 9.15826C93.8405 10.114 93.6428 11.1686 93.6428 12.2562Z" fill="#FF4655"/>
<path id="Vector_7" d="M117.008 0.985014C117.008 0.886145 117.041 0.787275 117.139 0.688405C117.205 0.622492 117.304 0.589535 117.403 0.589535H134.804C134.903 0.589535 135.002 0.622492 135.101 0.688405C135.167 0.787275 135.2 0.886145 135.2 0.985014V5.82963C135.2 6.12624 135.101 6.42285 134.903 6.65354L129.696 13.4755L137.144 23.1977C137.21 23.2966 137.21 23.3955 137.177 23.4943C137.111 23.5932 137.012 23.6591 136.913 23.6591H132.728C132.299 23.6591 131.937 23.4943 131.64 23.1318L124.423 13.7392C124.258 13.5744 124.258 13.4096 124.423 13.2449L130.915 4.77502H121.226V23.2636C121.226 23.5273 121.094 23.6591 120.798 23.6591H117.403C117.304 23.6591 117.205 23.6262 117.139 23.5273C117.041 23.4614 117.008 23.3625 117.008 23.2636V0.985014Z" fill="#FF4655"/>
<path id="Vector_8" d="M140.244 0.65546H143.375C143.803 0.65546 144.166 0.820242 144.462 1.18276L161.402 23.2637C161.501 23.3625 161.501 23.4614 161.468 23.5603C161.402 23.6591 161.303 23.725 161.171 23.725H156.986C156.557 23.725 156.195 23.5603 155.898 23.1977L150.197 15.7496L144.462 23.1977C144.166 23.5603 143.803 23.725 143.375 23.725H140.244C140.145 23.725 140.046 23.6921 139.98 23.5932C139.881 23.5273 139.848 23.4284 139.848 23.3296V1.05094C139.848 0.952068 139.881 0.853198 139.98 0.754329C140.046 0.688416 140.145 0.65546 140.244 0.65546ZM158.04 1.05094C158.04 0.787285 158.172 0.65546 158.469 0.65546H161.6C162.028 0.65546 162.358 0.820242 162.654 1.18276L174.519 16.6064V1.05094C174.519 0.787285 174.651 0.65546 174.914 0.65546H178.309C178.605 0.65546 178.737 0.787285 178.737 1.05094V23.3296C178.737 23.4284 178.704 23.5273 178.605 23.5932C178.507 23.6921 178.408 23.725 178.309 23.725H175.178C174.749 23.725 174.387 23.5603 174.09 23.1977L162.259 7.77408V16.8042C162.259 16.936 162.193 17.0349 162.061 17.0678C161.929 17.1008 161.83 17.0678 161.732 16.969L158.337 12.5528C158.139 12.3221 158.04 12.0255 158.04 11.7289V1.05094ZM144.067 7.77408V16.6064L147.461 12.1903L144.067 7.77408Z" fill="#FF4655"/>
<path id="Vector_9" d="M183.878 0.65546H187.504C187.8 0.65546 187.932 0.787287 187.932 1.0839V8.46616C187.932 8.76277 187.8 8.8946 187.504 8.8946H183.878C183.582 8.8946 183.45 8.76277 183.45 8.46616V1.0839C183.45 0.787287 183.582 0.65546 183.878 0.65546Z" fill="#FF4655"/>
<path id="Vector_10" d="M191.524 0.985014C191.524 0.886145 191.557 0.787275 191.656 0.688405C191.722 0.622492 191.821 0.589535 191.919 0.589535H206.223C206.651 0.589535 207.014 0.754319 207.31 1.11684L209.749 4.31363C209.848 4.4125 209.848 4.51137 209.815 4.61024C209.749 4.70911 209.65 4.77502 209.518 4.77502H202.169V23.2636C202.169 23.5273 202.037 23.6591 201.773 23.6591H198.379C198.115 23.6591 197.983 23.5273 197.983 23.2636V4.77502H191.919C191.821 4.77502 191.722 4.74206 191.656 4.64319C191.557 4.57728 191.524 4.47841 191.524 4.37954V0.985014Z" fill="#FF4655"/>
</g>
</svg>
